<!-- dna.svg -->
<svg xmlns="http://www.w3.org/2000/svg" viewBox="0 0 320 640" fill="none">
  <defs>
    <linearGradient id="g" x1="0" y1="0" x2="1" y2="1">
      <stop offset="0" stop-color="#B07A00"/>
      <stop offset="1" stop-color="#8E6300"/>
    </linearGradient>
  </defs>
  <path d="M60,20 C200,120 120,220 250,320
           C120,420 200,520 60,620"
        stroke="url(#g)" stroke-opacity=".55" stroke-width="2"/>
  <path d="M260,20 C120,120 200,220 70,320
           C200,420 120,520 260,620"
        stroke="url(#g)" stroke-opacity=".55" stroke-width="2"/>
  <g stroke="url(#g)" stroke-opacity=".35" stroke-width="1">
    <line x1="95"  y1="96"  x2="220" y2="96"/>
    <line x1="105" y1="146" x2="210" y2="146"/>
    <line x1="115" y1="196" x2="200" y2="196"/>
    <line x1="125" y1="246" x2="190" y2="246"/>
    <line x1="135" y1="296" x2="180" y2="296"/>
    <line x1="135" y1="344" x2="180" y2="344"/>
    <line x1="125" y1="394" x2="190" y2="394"/>
    <line x1="115" y1="444" x2="200" y2="444"/>
    <line x1="105" y1="494" x2="210" y2="494"/>
    <line x1="95"  y1="544" x2="220" y2="544"/>
  </g>
</svg>
